<mxfile host="Electron" modified="2024-02-17T08:52:17.636Z" agent="Mozilla/5.0 (Macintosh; Intel Mac OS X 10_15_7) AppleWebKit/537.36 (KHTML, like Gecko) draw.io/23.0.2 Chrome/120.0.6099.109 Electron/28.1.0 Safari/537.36" etag="apF6i8bskt_vpFI_TR0Z" version="23.0.2" type="device">
  <diagram name="페이지-1" id="In3S9-0JWecDspKkR4-D">
    <mxGraphModel dx="1114" dy="894" grid="1" gridSize="10" guides="1" tooltips="1" connect="1" arrows="1" fold="1" page="1" pageScale="1" pageWidth="827" pageHeight="1169" math="0" shadow="0">
      <root>
        <mxCell id="0" />
        <mxCell id="1" parent="0" />
        <mxCell id="6EJgrl0o0Kpm6cyrDZN3-1" style="edgeStyle=orthogonalEdgeStyle;rounded=0;orthogonalLoop=1;jettySize=auto;html=1;entryX=0.5;entryY=0;entryDx=0;entryDy=0;endArrow=block;endFill=1;" edge="1" parent="1" source="6EJgrl0o0Kpm6cyrDZN3-2" target="6EJgrl0o0Kpm6cyrDZN3-3">
          <mxGeometry relative="1" as="geometry" />
        </mxCell>
        <mxCell id="6EJgrl0o0Kpm6cyrDZN3-2" value="CsrfFilter" style="rounded=0;whiteSpace=wrap;html=1;" vertex="1" parent="1">
          <mxGeometry x="300" y="200" width="160" height="40" as="geometry" />
        </mxCell>
        <mxCell id="6EJgrl0o0Kpm6cyrDZN3-3" value="CsrfTokenRepository" style="rounded=0;whiteSpace=wrap;html=1;" vertex="1" parent="1">
          <mxGeometry x="300" y="300" width="160" height="40" as="geometry" />
        </mxCell>
        <mxCell id="6EJgrl0o0Kpm6cyrDZN3-5" value="CsrfTokenLogger" style="rounded=0;whiteSpace=wrap;html=1;fillColor=#f8cecc;strokeColor=#b85450;" vertex="1" parent="1">
          <mxGeometry x="500" y="200" width="160" height="40" as="geometry" />
        </mxCell>
        <mxCell id="6EJgrl0o0Kpm6cyrDZN3-6" value="" style="endArrow=block;html=1;rounded=0;endFill=1;" edge="1" parent="1">
          <mxGeometry width="50" height="50" relative="1" as="geometry">
            <mxPoint x="220" y="210" as="sourcePoint" />
            <mxPoint x="300" y="210" as="targetPoint" />
          </mxGeometry>
        </mxCell>
        <mxCell id="6EJgrl0o0Kpm6cyrDZN3-7" value="Request" style="edgeLabel;html=1;align=center;verticalAlign=middle;resizable=0;points=[];" vertex="1" connectable="0" parent="6EJgrl0o0Kpm6cyrDZN3-6">
          <mxGeometry x="-0.325" relative="1" as="geometry">
            <mxPoint x="9" y="-1" as="offset" />
          </mxGeometry>
        </mxCell>
        <mxCell id="6EJgrl0o0Kpm6cyrDZN3-9" value="" style="endArrow=none;html=1;rounded=0;endFill=0;startArrow=block;startFill=1;" edge="1" parent="1">
          <mxGeometry width="50" height="50" relative="1" as="geometry">
            <mxPoint x="220" y="230" as="sourcePoint" />
            <mxPoint x="300" y="230" as="targetPoint" />
          </mxGeometry>
        </mxCell>
        <mxCell id="6EJgrl0o0Kpm6cyrDZN3-10" value="Response" style="edgeLabel;html=1;align=center;verticalAlign=middle;resizable=0;points=[];" vertex="1" connectable="0" parent="6EJgrl0o0Kpm6cyrDZN3-9">
          <mxGeometry x="-0.45" relative="1" as="geometry">
            <mxPoint x="17" y="-1" as="offset" />
          </mxGeometry>
        </mxCell>
        <mxCell id="6EJgrl0o0Kpm6cyrDZN3-11" value="" style="endArrow=block;html=1;rounded=0;endFill=1;" edge="1" parent="1">
          <mxGeometry width="50" height="50" relative="1" as="geometry">
            <mxPoint x="460" y="210" as="sourcePoint" />
            <mxPoint x="500" y="210" as="targetPoint" />
          </mxGeometry>
        </mxCell>
        <mxCell id="6EJgrl0o0Kpm6cyrDZN3-13" value="" style="endArrow=none;html=1;rounded=0;endFill=0;startArrow=block;startFill=1;" edge="1" parent="1">
          <mxGeometry width="50" height="50" relative="1" as="geometry">
            <mxPoint x="460" y="230" as="sourcePoint" />
            <mxPoint x="500" y="230" as="targetPoint" />
          </mxGeometry>
        </mxCell>
        <mxCell id="6EJgrl0o0Kpm6cyrDZN3-14" value="CsrfFilter 가 CSRF 토큰을 생성한 후 &lt;br&gt;이 토큰을 _csrf 요청 특성에 추가함" style="text;html=1;strokeColor=#82b366;fillColor=#d5e8d4;align=center;verticalAlign=middle;whiteSpace=wrap;rounded=0;shadow=0;glass=0;sketch=1;curveFitting=1;jiggle=2;" vertex="1" parent="1">
          <mxGeometry x="280" y="90" width="200" height="40" as="geometry" />
        </mxCell>
        <mxCell id="6EJgrl0o0Kpm6cyrDZN3-15" style="edgeStyle=orthogonalEdgeStyle;rounded=0;orthogonalLoop=1;jettySize=auto;html=1;fillColor=#d5e8d4;strokeColor=#82b366;curved=1;" edge="1" parent="1" source="6EJgrl0o0Kpm6cyrDZN3-14" target="6EJgrl0o0Kpm6cyrDZN3-2">
          <mxGeometry relative="1" as="geometry" />
        </mxCell>
        <mxCell id="6EJgrl0o0Kpm6cyrDZN3-19" style="edgeStyle=orthogonalEdgeStyle;rounded=0;orthogonalLoop=1;jettySize=auto;html=1;exitX=0.75;exitY=1;exitDx=0;exitDy=0;fillColor=#d5e8d4;strokeColor=#82b366;curved=1;" edge="1" parent="1" source="6EJgrl0o0Kpm6cyrDZN3-18">
          <mxGeometry relative="1" as="geometry">
            <mxPoint x="260" y="200" as="targetPoint" />
          </mxGeometry>
        </mxCell>
        <mxCell id="6EJgrl0o0Kpm6cyrDZN3-18" value="CsrfFilter 에 도달하기 전의 GET HTTP 요청에는 _csrf&amp;nbsp; 특성이 없음" style="text;html=1;strokeColor=#82b366;fillColor=#d5e8d4;align=center;verticalAlign=middle;whiteSpace=wrap;rounded=0;shadow=0;glass=0;sketch=1;curveFitting=1;jiggle=2;" vertex="1" parent="1">
          <mxGeometry x="50" y="120" width="200" height="40" as="geometry" />
        </mxCell>
        <mxCell id="6EJgrl0o0Kpm6cyrDZN3-21" style="edgeStyle=orthogonalEdgeStyle;rounded=0;orthogonalLoop=1;jettySize=auto;html=1;exitX=0.25;exitY=1;exitDx=0;exitDy=0;fillColor=#d5e8d4;strokeColor=#82b366;curved=1;" edge="1" parent="1" source="6EJgrl0o0Kpm6cyrDZN3-20" target="6EJgrl0o0Kpm6cyrDZN3-5">
          <mxGeometry relative="1" as="geometry" />
        </mxCell>
        <mxCell id="6EJgrl0o0Kpm6cyrDZN3-20" value="이제 GET 요청에 _csrf 특성이 있음" style="text;html=1;strokeColor=#82b366;fillColor=#d5e8d4;align=center;verticalAlign=middle;whiteSpace=wrap;rounded=0;shadow=0;glass=0;sketch=1;curveFitting=1;jiggle=2;" vertex="1" parent="1">
          <mxGeometry x="570" y="120" width="200" height="40" as="geometry" />
        </mxCell>
        <mxCell id="6EJgrl0o0Kpm6cyrDZN3-23" style="edgeStyle=orthogonalEdgeStyle;rounded=0;orthogonalLoop=1;jettySize=auto;html=1;exitX=0.25;exitY=0;exitDx=0;exitDy=0;fillColor=#d5e8d4;strokeColor=#82b366;curved=1;" edge="1" parent="1" source="6EJgrl0o0Kpm6cyrDZN3-22" target="6EJgrl0o0Kpm6cyrDZN3-5">
          <mxGeometry relative="1" as="geometry" />
        </mxCell>
        <mxCell id="6EJgrl0o0Kpm6cyrDZN3-22" value="맞춤형 필터인 CsrfTokenLogger 가&lt;br&gt;_csrf 특성의 CSRF 토큰 출력" style="text;html=1;strokeColor=#82b366;fillColor=#d5e8d4;align=center;verticalAlign=middle;whiteSpace=wrap;rounded=0;shadow=0;glass=0;sketch=1;curveFitting=1;jiggle=2;" vertex="1" parent="1">
          <mxGeometry x="540" y="290" width="240" height="40" as="geometry" />
        </mxCell>
      </root>
    </mxGraphModel>
  </diagram>
</mxfile>
